<svg width="72" height="72" viewBox="0 0 72 72" fill="none" xmlns="http://www.w3.org/2000/svg">
<g id="google-2015 1" clip-path="url(#clip0_3071_7224)">
<g id="Group 22">
<path id="Vector" d="M8.86747 24.2637H9.50774C11.7306 24.3119 13.9171 25.2051 15.4876 26.7861C14.9077 27.3775 14.3158 27.9447 13.748 28.5361C12.8661 27.7395 11.803 27.124 10.6433 26.9068C8.92787 26.5447 7.07955 26.8706 5.64196 27.8482C4.07149 28.874 3.00841 30.6119 2.77888 32.4706C2.52518 34.305 3.04465 36.2361 4.24062 37.6602C5.38827 39.0481 7.13995 39.9171 8.95203 39.9774C10.6433 40.074 12.4071 39.555 13.6393 38.3723C14.6057 37.5395 15.0527 36.2723 15.1977 35.0412C13.1923 35.0412 11.1869 35.0533 9.18156 35.0412V32.555H17.6259C18.0608 35.2223 17.4326 38.2275 15.403 40.1343C14.05 41.4861 12.1775 42.2826 10.2688 42.4395C8.42049 42.6206 6.51176 42.2705 4.86881 41.3774C2.89968 40.3274 1.32921 38.5533 0.556056 36.4654C-0.168776 34.5464 -0.180857 32.374 0.495654 30.443C1.11176 28.6809 2.29565 27.124 3.8178 26.0378C5.27955 24.9637 7.05539 24.3723 8.86747 24.2637Z" fill="white"/>
<path id="Vector_2" d="M57.3105 24.8906H59.8958V42.1251C59.0381 42.1251 58.1683 42.1371 57.3105 42.113C57.3226 36.3803 57.3105 30.6354 57.3105 24.8906Z" fill="white"/>
<path id="Vector_3" d="M23.3763 30.8649C24.9709 30.5631 26.6984 30.9011 28.0152 31.8545C29.2112 32.6994 30.0447 34.0269 30.2984 35.4752C30.6246 37.1528 30.2138 38.9873 29.1266 40.3149C27.9548 41.7993 26.034 42.5959 24.1615 42.4752C22.4461 42.3786 20.7789 41.5218 19.7642 40.1218C18.6165 38.5769 18.3387 36.4528 18.9669 34.6425C19.595 32.6994 21.3709 31.2149 23.3763 30.8649ZM23.7387 33.158C23.0863 33.3269 22.4823 33.7011 22.0474 34.2321C20.8756 35.6321 20.9481 37.9131 22.2407 39.2166C22.9776 39.9649 24.089 40.3149 25.1158 40.1097C26.0702 39.9407 26.9038 39.3011 27.3628 38.4562C28.1601 37.02 27.9306 35.0407 26.7105 33.9183C25.9252 33.1942 24.7776 32.8925 23.7387 33.158Z" fill="white"/>
<path id="Vector_4" d="M36.182 30.8658C38.0062 30.5158 39.9995 31.0227 41.3646 32.302C43.5874 34.2933 43.829 38.0226 41.9324 40.3157C40.7847 41.764 38.9243 42.5606 37.0881 42.4761C35.3364 42.4278 33.6089 41.5588 32.5699 40.1226C31.3981 38.5416 31.1444 36.3692 31.8089 34.5227C32.4733 32.6399 34.2129 31.2037 36.182 30.8658ZM36.5444 33.1589C35.8921 33.3278 35.2881 33.702 34.8532 34.2209C33.6934 35.5968 33.7418 37.8416 34.9861 39.1571C35.723 39.9416 36.8706 40.3278 37.9337 40.1106C38.876 39.9295 39.7216 39.302 40.1807 38.4571C40.9659 37.0089 40.7364 35.0295 39.5042 33.9071C38.7189 33.183 37.5713 32.8933 36.5444 33.1589Z" fill="white"/>
<path id="Vector_5" d="M47.0415 31.5661C48.4308 30.6972 50.2791 30.4558 51.7771 31.2041C52.2482 31.4092 52.6348 31.7592 53.0093 32.1092C53.0214 31.7834 53.0093 31.4454 53.0214 31.1075C53.8308 31.1196 54.6401 31.1075 55.4616 31.1196V41.7644C55.4495 43.3696 55.0388 45.0713 53.8791 46.242C52.6106 47.5334 50.6657 47.9316 48.914 47.6661C47.0415 47.3885 45.4106 46.0247 44.6858 44.2989C45.4106 43.9489 46.1717 43.6713 46.9207 43.3454C47.3435 44.3351 48.2012 45.1799 49.2764 45.373C50.3516 45.5661 51.5959 45.3006 52.2965 44.4075C53.0455 43.4903 53.0455 42.2351 53.0093 41.1127C52.4536 41.6558 51.8133 42.1385 51.0401 42.3196C49.361 42.7903 47.5126 42.2109 46.22 41.0765C44.9153 39.942 44.1422 38.192 44.2146 36.4541C44.2509 34.4868 45.3623 32.592 47.0415 31.5661ZM49.5422 33.111C48.8052 33.2317 48.1167 33.642 47.6455 34.2092C46.5099 35.561 46.5099 37.7213 47.6576 39.0489C48.3099 39.8334 49.361 40.2678 50.3757 40.1592C51.3301 40.0627 52.212 39.4592 52.6831 38.6265C53.4804 37.2144 53.3475 35.2954 52.2724 34.0644C51.6079 33.3041 50.5448 32.9299 49.5422 33.111Z" fill="white"/>
<path id="Vector_6" d="M63.0006 32.1814C64.4503 30.8297 66.6852 30.371 68.5456 31.0831C70.3094 31.7469 71.4328 33.4245 72.0006 35.1503C69.3791 36.2365 66.7697 37.3107 64.1483 38.3969C64.5107 39.0848 65.0664 39.7124 65.8154 39.9658C66.8664 40.34 68.1228 40.2072 69.0047 39.5072C69.355 39.2417 69.6328 38.8917 69.8986 38.5538C70.563 39.0003 71.2275 39.4348 71.8919 39.8814C70.9496 41.2934 69.3671 42.2831 67.6637 42.44C65.7791 42.6693 63.7738 41.9451 62.5536 40.4727C60.5483 38.1555 60.7415 34.2693 63.0006 32.1814ZM64.2932 34.4141C63.8825 35.0055 63.7134 35.7296 63.7254 36.4417C65.4771 35.7176 67.2288 34.9934 68.9805 34.2572C68.6906 33.5814 67.9899 33.171 67.2771 33.0624C66.1295 32.8572 64.9335 33.4727 64.2932 34.4141Z" fill="white"/>
</g>
</g>
<defs>
<clipPath id="clip0_3071_7224">
<rect width="72" height="72" fill="white"/>
</clipPath>
</defs>
</svg>
