<svg width="72" height="72" viewBox="0 0 72 72" fill="none" xmlns="http://www.w3.org/2000/svg">
<g id="philips 1">
<path id="Vector" d="M7.3376 34.282C7.3376 35.9214 6.54322 37.0318 4.53147 37.0318H3.89578V31.8105C4.12177 31.7977 4.33283 31.7977 4.53147 31.7977C6.43635 31.7975 7.3376 32.6962 7.3376 34.282ZM5.27258 39.3053C8.87219 39.3053 11.1481 37.4542 11.1481 34.2297C11.1479 30.6866 8.71313 29.418 4.74324 29.418C3.20793 29.418 1.35523 29.5234 0.0322266 29.682V42.3197H3.89597V39.3053H5.27258ZM57.0406 34.282C57.0406 35.9214 56.2473 37.0318 54.235 37.0318H53.6015V31.8105C53.8255 31.7977 54.0369 31.7977 54.235 31.7977C56.1401 31.7975 57.0406 32.6962 57.0406 34.282ZM54.978 39.3053C58.5747 39.3053 60.8518 37.4542 60.8518 34.2297C60.8518 30.6866 58.4174 29.418 54.4472 29.418C52.9122 29.418 51.0584 29.5234 49.7353 29.682V42.3197H53.601V39.3053H54.978ZM65.8797 32.9072C65.8797 32.2201 66.5686 31.9024 67.6791 31.9024C68.8971 31.9024 70.2213 32.1669 71.1204 32.5385L70.8032 29.7881C69.7969 29.5765 68.8971 29.418 67.2567 29.418C64.1333 29.418 62.0167 30.6478 62.0167 33.2254C62.0167 37.6658 68.0519 36.7677 68.0519 38.8297C68.0519 39.6221 67.4688 40.0448 66.0389 40.0448C64.7704 40.0448 62.8105 39.6221 61.6462 39.0407L62.0708 41.9497C63.2342 42.3727 64.8223 42.5835 66.0931 42.5835C69.321 42.5835 71.9682 41.5257 71.9682 38.3527C71.9682 34.1243 65.8797 34.9166 65.8797 32.9072ZM46.8251 29.682H42.9614V42.3197H46.8251V29.682ZM31.1566 29.682H27.2925V42.3197H31.1566V29.682ZM37.879 39.7808V29.682H34.0149V42.3197H41.0027L41.5844 39.7808H37.879ZM24.4344 29.682H20.5703V34.7051H16.5473V29.682H12.6825V42.3197H16.5471V37.3488H20.5701V42.3197H24.4342L24.4344 29.682Z" fill="white"/>
</g>
</svg>
