<svg width="72" height="72" viewBox="0 0 72 72" fill="none" xmlns="http://www.w3.org/2000/svg">
<g id="toshiba-1 1">
<g id="Group">
<path id="Vector" fill-rule="evenodd" clip-rule="evenodd" d="M6.44364 41.2457H3.66608V33.2839H0.454102V30.8941H9.8267V33.2839H6.44364V41.2457ZM11.1408 33.6257C11.5599 31.1892 13.7323 30.8321 15.8121 30.8321C19.3816 30.8321 20.6385 31.7166 20.6385 35.4568C20.6385 39.2899 20.5455 41.3231 15.8898 41.3231C14.0431 41.3231 11.8393 41.1837 11.2185 39.0576C11.0168 38.3591 11.0011 37.63 11.0011 36.9005V36.1396C11.0011 35.3171 11.0011 34.4482 11.1408 33.6257ZM13.841 36.7137C13.841 38.1727 13.872 38.9485 15.5947 38.9485C17.4882 38.9485 17.7829 38.4827 17.7829 36.7137C17.7829 36.2173 17.7986 35.7052 17.7986 35.2084C17.7986 33.8271 17.5812 33.2066 16.0915 33.2066C13.9191 33.2066 13.8877 33.424 13.8414 36.0929V36.7137H13.841ZM28.7534 34.1221C28.7534 33.0665 28.3806 32.9272 27.3878 32.9272H27.1084C26.3789 32.9272 25.6031 32.9582 25.6031 33.8737C25.6031 34.5102 25.7895 34.805 26.4566 34.8516C28.8618 35.0534 31.7021 34.5722 31.7021 37.909C31.7021 38.7939 31.7021 39.9111 30.9726 40.5319C30.1187 41.2457 28.9394 41.3077 27.8532 41.3077H27.1704C24.3148 41.3077 22.8248 41.1837 22.8248 37.8933H25.463C25.463 38.6691 25.6494 39.1349 26.5182 39.1349H27.7132C28.4117 39.1349 28.9701 39.0415 28.9701 38.1103C28.9701 37.1948 28.427 37.1948 27.6508 37.1485C24.6558 36.9468 22.8401 37.2258 22.8401 33.7807C22.8401 31.9803 23.5539 31.0338 25.4006 30.8941C26.0057 30.8474 26.6109 30.8164 27.2164 30.8164C29.6219 30.8164 31.4066 30.8631 31.4066 33.7964C31.4066 33.9051 31.3909 34.0138 31.3909 34.1225H28.7534V34.1221ZM43.0256 41.2457H40.2473V37.1795H36.6469V41.2457H33.8689V30.8941H36.6469V34.805H40.2473V30.8941H43.0256V41.2457ZM48.4496 41.2457H45.6721V30.8941H48.4496V41.2457ZM51.114 30.8941H56.7476C58.6253 30.8941 59.8359 31.4062 59.8359 33.5323C59.8359 34.7273 59.7272 35.6895 58.2223 35.9379V36.0305C59.6193 36.1549 60.0066 36.8997 60.0066 38.2653C60.0066 40.5932 59.2312 41.2454 56.7943 41.2454H51.114V30.8941ZM55.6614 35.0377C56.4222 35.0067 57.089 35.1 57.089 34.1531C57.089 33.4083 56.8877 33.1752 56.1428 33.1752H53.8923V35.0377H55.6614ZM55.7394 38.9642C56.6083 38.9642 57.2444 38.9485 57.2444 37.94C57.2444 36.9778 56.7943 36.9468 55.9255 36.9468H53.8923V38.9642H55.7394ZM68.5705 41.2457H71.3952L68.2441 30.8941H64.0389L60.9345 41.2457H63.8215L64.4132 39.1663H67.9703L68.5705 41.2457ZM64.9835 37.1642L66.1807 32.9582L67.3939 37.1642H64.9835Z" fill="white"/>
</g>
</g>
</svg>
